<svg id="visual" viewBox="0 0 1920 300" width="1920" height="300" xmlns="http://www.w3.org/2000/svg" xmlns:xlink="http://www.w3.org/1999/xlink" version="1.1"><rect x="0" y="0" width="1920" height="300" fill="#fafafa"></rect><path d="M0 93L128 93L128 95L256 95L256 53L384 53L384 94L512 94L512 65L640 65L640 111L768 111L768 66L896 66L896 69L1024 69L1024 53L1152 53L1152 67L1280 67L1280 72L1408 72L1408 97L1536 97L1536 107L1664 107L1664 83L1792 83L1792 57L1920 57L1920 55L1920 301L1920 301L1792 301L1792 301L1664 301L1664 301L1536 301L1536 301L1408 301L1408 301L1280 301L1280 301L1152 301L1152 301L1024 301L1024 301L896 301L896 301L768 301L768 301L640 301L640 301L512 301L512 301L384 301L384 301L256 301L256 301L128 301L128 301L0 301Z" fill="#30046b"></path><path d="M0 174L128 174L128 111L256 111L256 128L384 128L384 117L512 117L512 102L640 102L640 140L768 140L768 144L896 144L896 107L1024 107L1024 108L1152 108L1152 101L1280 101L1280 153L1408 153L1408 104L1536 104L1536 155L1664 155L1664 140L1792 140L1792 170L1920 170L1920 159L1920 301L1920 301L1792 301L1792 301L1664 301L1664 301L1536 301L1536 301L1408 301L1408 301L1280 301L1280 301L1152 301L1152 301L1024 301L1024 301L896 301L896 301L768 301L768 301L640 301L640 301L512 301L512 301L384 301L384 301L256 301L256 301L128 301L128 301L0 301Z" fill="#1c0f54"></path><path d="M0 214L128 214L128 223L256 223L256 209L384 209L384 167L512 167L512 213L640 213L640 206L768 206L768 226L896 226L896 190L1024 190L1024 207L1152 207L1152 157L1280 157L1280 175L1408 175L1408 207L1536 207L1536 175L1664 175L1664 214L1792 214L1792 170L1920 170L1920 199L1920 301L1920 301L1792 301L1792 301L1664 301L1664 301L1536 301L1536 301L1408 301L1408 301L1280 301L1280 301L1152 301L1152 301L1024 301L1024 301L896 301L896 301L768 301L768 301L640 301L640 301L512 301L512 301L384 301L384 301L256 301L256 301L128 301L128 301L0 301Z" fill="#10103c"></path><path d="M0 258L128 258L128 251L256 251L256 272L384 272L384 272L512 272L512 281L640 281L640 230L768 230L768 220L896 220L896 264L1024 264L1024 218L1152 218L1152 233L1280 233L1280 215L1408 215L1408 266L1536 266L1536 238L1664 238L1664 238L1792 238L1792 269L1920 269L1920 217L1920 301L1920 301L1792 301L1792 301L1664 301L1664 301L1536 301L1536 301L1408 301L1408 301L1280 301L1280 301L1152 301L1152 301L1024 301L1024 301L896 301L896 301L768 301L768 301L640 301L640 301L512 301L512 301L384 301L384 301L256 301L256 301L128 301L128 301L0 301Z" fill="#0d0a23"></path></svg>